<?xml version="1.0" encoding="UTF-8" standalone="no"?>
<!DOCTYPE svg PUBLIC "-//W3C//DTD SVG 1.1//EN" "http://www.w3.org/Graphics/SVG/1.1/DTD/svg11.dtd">
<svg xmlns="http://www.w3.org/2000/svg" version="1.1" viewBox="0.00 0.00 500.00 500.00">
<path fill="#1b191a" d="
  M 193.52 128.95
  L 191.08 103.02
  Q 191.04 102.55 191.51 102.55
  Q 206.78 102.55 220.76 103.95
  Q 254.88 107.37 283.60 117.60
  Q 311.64 127.58 334.77 143.62
  Q 349.71 153.99 362.49 167.70
  C 363.07 168.32 363.53 168.91 363.53 169.81
  Q 363.55 270.60 363.53 370.70
  Q 363.53 371.24 362.99 371.24
  L 348.96 371.24
  Q 348.35 371.24 347.84 370.90
  Q 332.25 360.31 316.58 353.68
  C 277.45 337.11 232.51 335.27 189.71 341.75
  A 0.54 0.53 -7.0 0 1 189.09 341.27
  L 170.29 132.45
  A 0.56 0.55 84.9 0 1 170.79 131.84
  L 192.79 129.83
  Q 193.59 129.76 193.52 128.95
  Z
  M 305.00 316.37
  C 324.88 326.31 342.88 339.22 357.54 355.98
  Q 358.21 356.75 358.21 355.73
  L 358.20 182.28
  Q 358.20 181.81 357.91 181.45
  Q 352.77 174.96 346.69 169.31
  Q 332.86 156.49 318.04 147.50
  C 284.18 126.97 245.45 117.09 205.17 115.03
  Q 204.64 115.00 204.69 115.53
  L 221.02 288.22
  Q 221.07 288.77 221.62 288.88
  Q 229.95 290.51 238.26 292.43
  Q 273.30 300.53 305.00 316.37
  Z
  M 209.64 298.78
  L 194.82 142.32
  Q 194.79 141.97 194.44 142.00
  L 183.97 142.95
  Q 183.66 142.98 183.69 143.28
  L 200.24 327.18
  A 0.73 0.72 -5.7 0 0 201.05 327.84
  Q 232.10 324.31 263.88 327.68
  Q 296.17 331.10 325.74 344.10
  Q 327.34 344.80 325.95 343.75
  Q 318.33 338.00 309.30 332.94
  Q 293.46 324.07 278.50 318.19
  Q 245.41 305.18 210.29 299.47
  Q 209.70 299.37 209.64 298.78
  Z"
/>
<path fill="#1b191a" d="
  M 182.19 351.20
  C 205.94 347.70 230.17 345.89 253.10 347.52
  Q 261.78 348.14 274.22 350.28
  C 298.73 354.51 322.61 363.36 342.74 377.79
  A 1.52 1.49 -24.8 0 0 343.50 378.06
  L 363.02 379.48
  Q 363.53 379.51 363.53 380.02
  L 363.53 396.55
  Q 363.53 397.26 362.83 397.25
  Q 354.68 397.22 346.81 397.25
  Q 340.93 397.27 333.56 395.99
  Q 247.88 381.16 164.64 366.74
  Q 164.37 366.70 164.34 366.42
  L 136.87 154.25
  A 0.66 0.65 -3.8 0 1 137.52 153.51
  L 163.27 153.51
  Q 163.78 153.51 163.82 154.01
  L 181.56 350.70
  Q 181.61 351.28 182.19 351.20
  Z"
/>
</svg>
