<?xml version="1.0" encoding="UTF-8" standalone="no"?>
<!DOCTYPE svg PUBLIC "-//W3C//DTD SVG 1.1//EN" "http://www.w3.org/Graphics/SVG/1.1/DTD/svg11.dtd">
<svg xmlns="http://www.w3.org/2000/svg" version="1.1" viewBox="0.00 0.00 500.00 500.00">
<path fill="#1b191a" d="
  M 92.90 203.06
  L 92.16 195.26
  Q 92.09 194.59 92.77 194.58
  C 115.06 194.46 136.17 201.02 151.74 217.37
  Q 152.11 217.75 152.11 218.27
  L 152.13 287.47
  A 0.26 0.25 -90.0 0 1 151.88 287.73
  L 147.04 287.74
  Q 146.40 287.74 145.87 287.39
  Q 136.98 281.42 128.23 279.24
  Q 110.71 274.86 92.01 277.52
  A 0.57 0.56 -6.3 0 1 91.37 277.01
  L 84.95 205.42
  Q 84.86 204.46 85.83 204.39
  L 92.20 203.89
  Q 92.97 203.83 92.90 203.06
  Z
  M 123.69 265.09
  Q 139.21 271.07 149.49 282.19
  Q 150.00 282.74 150.00 281.99
  L 150.00 222.97
  A 2.94 2.90 -66.4 0 0 149.25 221.01
  C 136.32 206.60 116.43 199.51 97.21 198.81
  Q 96.70 198.79 96.75 199.30
  L 102.34 258.28
  Q 102.41 259.00 103.11 259.16
  Q 114.86 261.69 123.69 265.09
  Z
  M 98.46 262.01
  L 93.38 208.08
  Q 93.37 207.94 93.23 207.95
  L 89.74 208.40
  A 0.29 0.29 0.0 0 0 89.48 208.72
  L 95.14 272.19
  Q 95.20 272.87 95.88 272.78
  C 109.95 270.96 124.65 272.59 137.22 277.63
  Q 138.86 278.28 137.43 277.25
  Q 132.83 273.92 127.30 271.37
  Q 114.10 265.29 99.20 262.80
  Q 98.53 262.69 98.46 262.01
  Z"
/>
<path fill="#000000" d="
  M 197.76 248.16
  L 181.84 252.38
  A 1.97 1.96 2.6 0 0 180.48 253.62
  Q 177.06 263.04 172.84 271.89
  Q 171.46 274.78 169.16 272.55
  L 168.16 271.59
  A 4.71 4.71 0.0 0 1 167.09 266.40
  L 171.53 255.77
  Q 171.80 255.11 171.09 255.10
  Q 168.42 255.05 166.90 252.60
  A 2.14 2.14 0.0 0 1 167.66 249.61
  Q 171.08 247.66 174.83 246.62
  A 1.46 1.44 -86.5 0 0 175.79 245.76
  Q 180.92 232.90 188.15 215.53
  Q 189.16 213.09 190.50 211.71
  C 192.42 209.72 197.31 206.94 199.21 210.62
  Q 200.99 214.08 201.90 218.04
  Q 204.27 228.38 205.28 239.31
  A 0.67 0.67 0.0 0 0 206.01 239.92
  C 208.11 239.72 212.29 239.09 213.66 241.14
  A 1.45 1.44 -31.8 0 1 213.18 243.19
  Q 209.87 245.09 206.52 245.85
  Q 205.94 245.98 205.98 246.57
  C 206.28 251.22 208.07 270.12 204.83 272.96
  A 2.00 2.00 0.0 0 1 201.72 272.36
  Q 200.14 269.27 199.85 264.84
  Q 199.23 255.73 198.61 248.75
  Q 198.54 247.95 197.76 248.16
  Z
  M 184.52 242.99
  A 0.50 0.50 0.0 0 0 185.09 243.66
  L 197.53 241.05
  A 0.50 0.50 0.0 0 0 197.92 240.50
  L 195.08 218.83
  A 0.50 0.50 0.0 0 0 194.12 218.72
  L 184.52 242.99
  Z"
/>
<path fill="#1b191a" d="
  M 89.62 280.80
  C 102.62 279.00 115.01 278.58 127.29 281.94
  Q 135.37 284.15 142.93 289.10
  Q 145.06 290.50 146.86 290.51
  Q 149.25 290.53 151.84 290.78
  Q 152.07 290.80 152.07 291.02
  L 152.14 296.66
  Q 152.15 296.98 151.82 296.97
  C 148.55 296.92 145.45 297.15 142.15 296.57
  Q 112.33 291.33 83.34 286.31
  Q 82.81 286.22 82.75 285.69
  L 73.34 212.29
  Q 73.34 212.26 73.42 212.21
  Q 73.85 211.96 82.33 212.09
  Q 82.57 212.09 82.59 212.33
  L 88.66 280.04
  Q 88.74 280.92 89.62 280.80
  Z"
/>
<path fill="#000000" d="
  M 244.44 286.01
  C 247.01 284.32 250.73 282.12 253.89 282.14
  A 2.42 2.25 9.8 0 1 256.22 285.20
  Q 255.87 286.12 255.02 286.67
  Q 247.50 291.50 239.99 296.77
  A 2.35 2.35 0.0 0 1 237.03 296.56
  Q 233.70 293.44 235.36 288.73
  Q 239.12 278.08 242.74 268.39
  Q 243.25 267.03 242.17 268.01
  C 238.60 271.25 231.56 275.32 226.83 272.82
  C 221.44 269.97 218.27 264.23 220.00 258.00
  C 222.25 249.88 227.06 241.64 232.88 235.83
  C 240.12 228.60 249.34 224.61 256.22 235.40
  C 256.91 236.47 257.11 237.96 256.60 239.14
  A 1.41 1.40 26.4 0 1 254.63 239.80
  Q 252.78 238.76 251.15 237.37
  C 243.53 230.85 232.09 248.45 229.33 253.72
  C 227.53 257.16 223.33 266.77 231.21 265.97
  Q 233.38 265.75 235.39 264.65
  Q 246.61 258.49 249.89 246.27
  Q 250.41 244.34 252.34 244.80
  Q 254.19 245.24 255.86 246.63
  Q 257.31 247.84 256.97 249.69
  Q 256.61 251.67 255.89 253.58
  Q 250.00 269.32 243.93 285.61
  Q 243.57 286.58 244.44 286.01
  Z"
/>
<path fill="#000000" d="
  M 276.29 239.87
  C 279.98 234.17 285.71 227.59 293.31 228.96
  A 2.05 2.04 -77.1 0 1 294.91 231.52
  C 294.36 233.51 290.93 235.01 289.17 235.91
  C 283.28 238.95 279.23 245.99 276.79 252.76
  Q 273.90 260.77 271.01 269.69
  Q 270.40 271.57 269.04 273.06
  A 2.28 2.28 0.0 0 1 265.52 272.86
  Q 263.12 269.57 264.62 265.02
  C 267.73 255.66 269.76 245.94 269.12 236.72
  C 268.97 234.65 268.35 230.04 270.47 228.75
  Q 271.00 228.42 271.57 228.68
  C 275.92 230.67 276.16 235.46 275.77 239.69
  Q 275.66 240.84 276.29 239.87
  Z"
/>
<path fill="#000000" d="
  M 318.17 264.20
  C 311.97 271.89 303.30 278.31 294.43 268.79
  Q 290.45 264.52 292.18 258.37
  Q 296.74 242.21 309.51 231.87
  C 313.76 228.43 319.85 227.11 324.22 231.46
  C 328.49 235.71 330.66 240.75 326.99 246.33
  Q 326.67 246.81 326.97 247.31
  Q 328.09 249.17 327.70 251.36
  Q 326.13 260.19 324.82 269.36
  Q 324.58 271.00 324.04 272.56
  A 1.56 1.56 0.0 0 1 321.27 272.92
  Q 319.08 269.69 318.95 264.46
  Q 318.92 263.27 318.17 264.20
  Z
  M 315.09 237.36
  C 308.01 241.91 300.80 253.15 299.38 261.28
  C 298.39 266.93 304.86 266.81 308.05 264.67
  Q 317.49 258.34 320.66 245.92
  A 1.15 1.14 79.0 0 1 321.08 245.29
  L 321.66 244.87
  A 1.11 1.08 73.6 0 0 322.11 244.02
  C 322.19 239.86 321.22 233.41 315.09 237.36
  Z"
/>
<path fill="#000000" d="
  M 361.42 264.16
  Q 361.39 263.32 360.87 263.97
  C 357.71 267.96 353.34 272.35 348.26 273.40
  C 343.06 274.46 337.68 270.72 335.22 266.42
  C 333.00 262.52 334.87 256.68 336.51 252.81
  Q 341.78 240.43 350.70 232.95
  Q 361.94 223.52 369.47 234.77
  Q 373.25 240.42 369.49 246.31
  Q 369.22 246.73 369.45 247.18
  Q 370.51 249.26 370.15 251.51
  Q 368.50 261.69 366.73 272.29
  A 1.56 1.55 -70.9 0 1 364.45 273.40
  C 362.11 272.14 361.49 266.40 361.42 264.16
  Z
  M 363.84 245.13
  L 364.11 244.94
  Q 364.56 244.63 364.58 244.09
  Q 364.68 241.25 363.96 238.87
  C 362.16 232.86 355.50 238.49 353.22 240.96
  Q 345.99 248.83 342.69 257.96
  C 342.02 259.83 340.98 263.34 342.75 264.88
  C 345.72 267.45 350.10 265.41 352.69 263.17
  Q 360.56 256.39 363.05 246.27
  Q 363.22 245.55 363.84 245.13
  Z"
/>
<path fill="#000000" d="
  M 405.27 238.80
  A 1.13 1.12 -69.7 0 0 404.54 237.20
  C 399.28 235.90 392.92 236.48 387.24 237.39
  C 384.33 237.85 382.34 235.79 381.16 233.40
  A 2.03 2.03 0.0 0 1 381.91 230.78
  Q 383.56 229.75 385.63 229.43
  Q 396.58 227.71 405.25 229.77
  Q 408.46 230.53 410.62 233.35
  Q 414.20 238.04 410.88 242.62
  Q 407.73 246.96 403.44 250.30
  Q 396.78 255.47 389.02 260.95
  Q 387.31 262.16 386.09 263.76
  A 1.46 1.45 -71.7 0 0 387.26 266.10
  Q 397.54 265.92 408.59 264.66
  Q 410.49 264.44 412.39 265.20
  Q 412.84 265.38 413.01 265.84
  C 415.34 272.05 390.97 273.53 387.68 273.64
  Q 381.88 273.82 377.80 268.88
  Q 375.02 265.52 377.44 262.41
  C 380.25 258.78 384.46 255.51 388.20 252.86
  Q 396.75 246.82 403.13 241.50
  Q 404.49 240.37 405.27 238.80
  Z"
/>
</svg>
