<svg version="1.1" xmlns="http://www.w3.org/2000/svg" xmlns:xlink="http://www.w3.org/1999/xlink" width="500px" height="500px" viewBox="0,0,256,256"><g fill="#ffffff" fillRule="nonzero" stroke="none" stroke-width="1" stroke-linecap="butt" stroke-linejoin="miter" stroke-miterlimit="10" stroke-dasharray="" stroke-dashoffset="0" font-family="none" font-weight="none" font-size="none" text-anchor="none" style="mix-blend-mode: normal"><g transform="translate(-0.10338,0.05112) scale(0.512,0.512)"><path d="M193.52,128.95l-2.44,-25.93c-0.02667,-0.31333 0.11667,-0.47 0.43,-0.47c10.18,0 19.93,0.46667 29.25,1.4c22.74667,2.28 43.69333,6.83 62.84,13.65c18.69333,6.65333 35.75,15.32667 51.17,26.02c9.96,6.91333 19.2,14.94 27.72,24.08c0.58,0.62 1.04,1.21 1.04,2.11c0.01333,67.19333 0.01333,134.15667 0,200.89c0,0.36 -0.18,0.54 -0.54,0.54h-14.03c-0.40667,0 -0.78,-0.11333 -1.12,-0.34c-10.39333,-7.06 -20.81333,-12.8 -31.26,-17.22c-39.13,-16.57 -84.07,-18.41 -126.87,-11.93c-0.14839,0.02299 -0.29956,-0.01569 -0.41719,-0.10676c-0.11764,-0.09107 -0.19112,-0.22631 -0.20281,-0.37324l-18.8,-208.82c-0.01411,-0.1488 0.03079,-0.29697 0.1247,-0.41154c0.09391,-0.11457 0.22903,-0.18602 0.3753,-0.19846l22,-2.01c0.53333,-0.04667 0.77667,-0.34 0.73,-0.88zM305,316.37c19.88,9.94 37.88,22.85 52.54,39.61c0.44667,0.51333 0.67,0.43 0.67,-0.25l-0.01,-173.45c0,-0.31333 -0.09667,-0.59 -0.29,-0.83c-3.42667,-4.32667 -7.16667,-8.37333 -11.22,-12.14c-9.22,-8.54667 -18.77,-15.81667 -28.65,-21.81c-33.86,-20.53 -72.59,-30.41 -112.87,-32.47c-0.35333,-0.02 -0.51333,0.14667 -0.48,0.5l16.33,172.69c0.03333,0.36667 0.23333,0.58667 0.6,0.66c5.55333,1.08667 11.1,2.27 16.64,3.55c23.36,5.4 45.60667,13.38 66.74,23.94zM209.64,298.78l-14.82,-156.46c-0.02,-0.23333 -0.14667,-0.34 -0.38,-0.32l-10.47,0.95c-0.20667,0.02 -0.3,0.13 -0.28,0.33l16.55,183.9c0.0147,0.19522 0.10937,0.3759 0.26218,0.50042c0.15282,0.12452 0.35061,0.18214 0.54782,0.15958c20.7,-2.35333 41.64333,-2.40667 62.83,-0.16c21.52667,2.28 42.14667,7.75333 61.86,16.42c1.06667,0.46667 1.13667,0.35 0.21,-0.35c-5.08,-3.83333 -10.63,-7.43667 -16.65,-10.81c-10.56,-5.91333 -20.82667,-10.83 -30.8,-14.75c-22.06,-8.67333 -44.79667,-14.91333 -68.21,-18.72c-0.39333,-0.06667 -0.61,-0.29667 -0.65,-0.69z"></path><path d="M182.19,351.2c23.75,-3.5 47.98,-5.31 70.91,-3.68c5.78667,0.41333 12.82667,1.33333 21.12,2.76c24.51,4.23 48.39,13.08 68.52,27.51c0.22268,0.15696 0.48545,0.25031 0.76,0.27l19.52,1.42c0.34,0.02 0.51,0.2 0.51,0.54v16.53c0,0.47333 -0.23333,0.70667 -0.7,0.7c-5.43333,-0.02 -10.77333,-0.02 -16.02,0c-3.92,0.01333 -8.33667,-0.40667 -13.25,-1.26c-57.12,-9.88667 -113.42667,-19.63667 -168.92,-29.25c-0.18,-0.02667 -0.28,-0.13333 -0.3,-0.32l-27.47,-212.17c-0.02593,-0.18542 0.03059,-0.373 0.15507,-0.51473c0.12449,-0.14172 0.30486,-0.22382 0.49493,-0.22527h25.75c0.34,0 0.52333,0.16667 0.55,0.5l17.74,196.69c0.03333,0.38667 0.24333,0.55333 0.63,0.5z"></path></g></g></svg>